<svg width="911" height="1884" viewBox="0 0 911 1884" class="keymap" xmlns="http://www.w3.org/2000/svg" xmlns:xlink="http://www.w3.org/1999/xlink">
<defs>/* start glyphs */
<svg id="mdi:apple-keyboard-command">
<svg xmlns="http://www.w3.org/2000/svg" id="mdi-apple-keyboard-command" viewBox="0 0 24 24"><path d="M6,2A4,4 0 0,1 10,6V8H14V6A4,4 0 0,1 18,2A4,4 0 0,1 22,6A4,4 0 0,1 18,10H16V14H18A4,4 0 0,1 22,18A4,4 0 0,1 18,22A4,4 0 0,1 14,18V16H10V18A4,4 0 0,1 6,22A4,4 0 0,1 2,18A4,4 0 0,1 6,14H8V10H6A4,4 0 0,1 2,6A4,4 0 0,1 6,2M16,18A2,2 0 0,0 18,20A2,2 0 0,0 20,18A2,2 0 0,0 18,16H16V18M14,10H10V14H14V10M6,16A2,2 0 0,0 4,18A2,2 0 0,0 6,20A2,2 0 0,0 8,18V16H6M8,6A2,2 0 0,0 6,4A2,2 0 0,0 4,6A2,2 0 0,0 6,8H8V6M18,8A2,2 0 0,0 20,6A2,2 0 0,0 18,4A2,2 0 0,0 16,6V8H18Z" /></svg>
</svg>
<svg id="mdi:apple-keyboard-control">
<svg xmlns="http://www.w3.org/2000/svg" id="mdi-apple-keyboard-control" viewBox="0 0 24 24"><path d="M19.78,11.78L18.36,13.19L12,6.83L5.64,13.19L4.22,11.78L12,4L19.78,11.78Z" /></svg>
</svg>
<svg id="mdi:apple-keyboard-option">
<svg xmlns="http://www.w3.org/2000/svg" id="mdi-apple-keyboard-option" viewBox="0 0 24 24"><path d="M3,4H9.11L16.15,18H21V20H14.88L7.84,6H3V4M14,4H21V6H14V4Z" /></svg>
</svg>
<svg id="mdi:apple-keyboard-shift">
<svg xmlns="http://www.w3.org/2000/svg" id="mdi-apple-keyboard-shift" viewBox="0 0 24 24"><path d="M15,18V12H17.17L12,6.83L6.83,12H9V18H15M12,4L22,14H17V20H7V14H2L12,4Z" /></svg>
</svg>
<svg id="mdi:arrow-down">
<svg xmlns="http://www.w3.org/2000/svg" id="mdi-arrow-down" viewBox="0 0 24 24"><path d="M11,4H13V16L18.5,10.5L19.92,11.92L12,19.84L4.08,11.92L5.5,10.5L11,16V4Z" /></svg>
</svg>
<svg id="mdi:arrow-left">
<svg xmlns="http://www.w3.org/2000/svg" id="mdi-arrow-left" viewBox="0 0 24 24"><path d="M20,11V13H8L13.5,18.5L12.08,19.92L4.16,12L12.08,4.08L13.5,5.5L8,11H20Z" /></svg>
</svg>
<svg id="mdi:arrow-right">
<svg xmlns="http://www.w3.org/2000/svg" id="mdi-arrow-right" viewBox="0 0 24 24"><path d="M4,11V13H16L10.5,18.5L11.92,19.92L19.84,12L11.92,4.08L10.5,5.5L16,11H4Z" /></svg>
</svg>
<svg id="mdi:arrow-up">
<svg xmlns="http://www.w3.org/2000/svg" id="mdi-arrow-up" viewBox="0 0 24 24"><path d="M13,20H11V8L5.5,13.5L4.08,12.08L12,4.16L19.92,12.08L18.5,13.5L13,8V20Z" /></svg>
</svg>
<svg id="mdi:backspace">
<svg xmlns="http://www.w3.org/2000/svg" id="mdi-backspace" viewBox="0 0 24 24"><path d="M22,3H7C6.31,3 5.77,3.35 5.41,3.88L0,12L5.41,20.11C5.77,20.64 6.31,21 7,21H22A2,2 0 0,0 24,19V5A2,2 0 0,0 22,3M19,15.59L17.59,17L14,13.41L10.41,17L9,15.59L12.59,12L9,8.41L10.41,7L14,10.59L17.59,7L19,8.41L15.41,12" /></svg>
</svg>
<svg id="mdi:backspace-reverse-outline">
<svg xmlns="http://www.w3.org/2000/svg" id="mdi-backspace-reverse-outline" viewBox="0 0 24 24"><path d="M5,15.59L6.41,17L10,13.41L13.59,17L15,15.59L11.41,12L15,8.41L13.59,7L10,10.59L6.41,7L5,8.41L8.59,12L5,15.59M2,3A2,2 0 0,0 0,5V19A2,2 0 0,0 2,21H17C17.69,21 18.23,20.64 18.59,20.11L24,12L18.59,3.88C18.23,3.35 17.69,3 17,3H2M2,5H17L21.72,12L17,19H2V5Z" /></svg>
</svg>
<svg id="mdi:caps-lock">
<svg xmlns="http://www.w3.org/2000/svg" id="mdi-caps-lock" viewBox="0 0 24 24"><path d="M9.96,13.71L12,8.29L14.03,13.72M11.14,6L6.43,18H8.36L9.32,15.43H14.68L15.64,18H17.57L12.86,6H11.14M20,2H4C2.89,2 2,2.89 2,4V20C2,21.11 2.9,22 4,22H20C21.11,22 22,21.11 22,20V4C22,2.89 21.1,2 20,2M20,20H4V4H20V20Z" /></svg>
</svg>
<svg id="mdi:content-copy">
<svg xmlns="http://www.w3.org/2000/svg" id="mdi-content-copy" viewBox="0 0 24 24"><path d="M19,21H8V7H19M19,5H8A2,2 0 0,0 6,7V21A2,2 0 0,0 8,23H19A2,2 0 0,0 21,21V7A2,2 0 0,0 19,5M16,1H4A2,2 0 0,0 2,3V17H4V3H16V1Z" /></svg>
</svg>
<svg id="mdi:content-cut">
<svg xmlns="http://www.w3.org/2000/svg" id="mdi-content-cut" viewBox="0 0 24 24"><path d="M19,3L13,9L15,11L22,4V3M12,12.5A0.5,0.5 0 0,1 11.5,12A0.5,0.5 0 0,1 12,11.5A0.5,0.5 0 0,1 12.5,12A0.5,0.5 0 0,1 12,12.5M6,20A2,2 0 0,1 4,18C4,16.89 4.9,16 6,16A2,2 0 0,1 8,18C8,19.11 7.1,20 6,20M6,8A2,2 0 0,1 4,6C4,4.89 4.9,4 6,4A2,2 0 0,1 8,6C8,7.11 7.1,8 6,8M9.64,7.64C9.87,7.14 10,6.59 10,6A4,4 0 0,0 6,2A4,4 0 0,0 2,6A4,4 0 0,0 6,10C6.59,10 7.14,9.87 7.64,9.64L10,12L7.64,14.36C7.14,14.13 6.59,14 6,14A4,4 0 0,0 2,18A4,4 0 0,0 6,22A4,4 0 0,0 10,18C10,17.41 9.87,16.86 9.64,16.36L12,14L19,21H22V20L9.64,7.64Z" /></svg>
</svg>
<svg id="mdi:content-paste">
<svg xmlns="http://www.w3.org/2000/svg" id="mdi-content-paste" viewBox="0 0 24 24"><path d="M19,20H5V4H7V7H17V4H19M12,2A1,1 0 0,1 13,3A1,1 0 0,1 12,4A1,1 0 0,1 11,3A1,1 0 0,1 12,2M19,2H14.82C14.4,0.84 13.3,0 12,0C10.7,0 9.6,0.84 9.18,2H5A2,2 0 0,0 3,4V20A2,2 0 0,0 5,22H19A2,2 0 0,0 21,20V4A2,2 0 0,0 19,2Z" /></svg>
</svg>
<svg id="mdi:keyboard-esc">
<svg xmlns="http://www.w3.org/2000/svg" id="mdi-keyboard-esc" viewBox="0 0 24 24"><path d="M1 7H7V9H3V11H7V13H3V15H7V17H1V7M11 7H15V9H11V11H13C14.11 11 15 11.9 15 13V15C15 16.11 14.11 17 13 17H9V15H13V13H11C9.9 13 9 12.11 9 11V9C9 7.9 9.9 7 11 7M19 7H21C22.11 7 23 7.9 23 9V10H21V9H19V15H21V14H23V15C23 16.11 22.11 17 21 17H19C17.9 17 17 16.11 17 15V9C17 7.9 17.9 7 19 7Z" /></svg>
</svg>
<svg id="mdi:keyboard-return">
<svg xmlns="http://www.w3.org/2000/svg" id="mdi-keyboard-return" viewBox="0 0 24 24"><path d="M19,7V11H5.83L9.41,7.41L8,6L2,12L8,18L9.41,16.58L5.83,13H21V7H19Z" /></svg>
</svg>
<svg id="mdi:keyboard-space">
<svg xmlns="http://www.w3.org/2000/svg" id="mdi-keyboard-space" viewBox="0 0 24 24"><path d="M3 15H5V19H19V15H21V19C21 20.1 20.1 21 19 21H5C3.9 21 3 20.1 3 19V15Z" /></svg>
</svg>
<svg id="mdi:keyboard-tab">
<svg xmlns="http://www.w3.org/2000/svg" id="mdi-keyboard-tab" viewBox="0 0 24 24"><path d="M20,18H22V6H20M11.59,7.41L15.17,11H1V13H15.17L11.59,16.58L13,18L19,12L13,6L11.59,7.41Z" /></svg>
</svg>
<svg id="mdi:repeat">
<svg xmlns="http://www.w3.org/2000/svg" id="mdi-repeat" viewBox="0 0 24 24"><path d="M17,17H7V14L3,18L7,22V19H19V13H17M7,7H17V10L21,6L17,2V5H5V11H7V7Z" /></svg>
</svg>
<svg id="mdi:swap-horizontal">
<svg xmlns="http://www.w3.org/2000/svg" id="mdi-swap-horizontal" viewBox="0 0 24 24"><path d="M21,9L17,5V8H10V10H17V13M7,11L3,15L7,19V16H14V14H7V11Z" /></svg>
</svg>
<svg id="mdi:swap-horizontal-hidden">
<svg xmlns="http://www.w3.org/2000/svg" id="mdi-swap-horizontal-hidden" viewBox="0 0 24 24"><path d="M17 5L21 9L17 13V5M16 8H13V10H16V8M12 10V8H10V10H12M3 15L7 11V19L3 15M8 16H11V14H8V16M12 14V16H14V14H12Z" /></svg>
</svg>
<svg id="mdi:undo-variant">
<svg xmlns="http://www.w3.org/2000/svg" id="mdi-undo-variant" viewBox="0 0 24 24"><path d="M13.5,7A6.5,6.5 0 0,1 20,13.5A6.5,6.5 0 0,1 13.5,20H10V18H13.5C16,18 18,16 18,13.5C18,11 16,9 13.5,9H7.83L10.91,12.09L9.5,13.5L4,8L9.5,2.5L10.92,3.91L7.83,7H13.5M6,18H8V20H6V18Z" /></svg>
</svg>
</defs>/* end glyphs */
<style>/* inherit to force styles through use tags */
svg path {
    fill: inherit;
}

/* font and background color specifications */
svg.keymap {
    font-family: SFMono-Regular,Consolas,Liberation Mono,Menlo,monospace;
    font-size: 14px;
    font-kerning: normal;
    text-rendering: optimizeLegibility;
    fill: #24292e;
}

/* default key styling */
rect.key {
    fill: #f6f8fa;
}

rect.key, rect.combo {
    stroke: #c9cccf;
    stroke-width: 1;
}

/* default key side styling, only used is draw_key_sides is set */
rect.side {
    filter: brightness(90%);
}

/* color accent for combo boxes */
rect.combo, rect.combo-separate {
    fill: #cdf;
}

/* color accent for held keys */
rect.held, rect.combo.held {
    fill: #fdd;
}

/* color accent for ghost (optional) keys */
rect.ghost, rect.combo.ghost {
    stroke-dasharray: 4, 4;
    stroke-width: 2;
}

text {
    text-anchor: middle;
    dominant-baseline: middle;
}

/* styling for layer labels */
text.label {
    font-weight: bold;
    text-anchor: start;
    stroke: white;
    stroke-width: 4;
    paint-order: stroke;
}

/* styling for optional footer */
text.footer {
    text-anchor: end;
    dominant-baseline: auto;
    stroke: white;
    stroke-width: 4;
    paint-order: stroke;
}

/* styling for combo tap, and key non-tap label text */
text.combo, text.hold, text.shifted, text.left, text.right {
    font-size: 11px;
}

text.hold {
    text-anchor: middle;
    dominant-baseline: auto;
}

text.shifted {
    text-anchor: middle;
    dominant-baseline: hanging;
}

text.left {
    text-anchor: start;
}

text.right {
    text-anchor: end;
}

text.layer-activator {
    text-decoration: underline;
}

/* styling for hold/shifted label text in combo box */
text.combo.hold, text.combo.shifted, text.combo.left, text.combo.right {
    font-size: 8px;
}

/* lighter symbol for transparent keys */
text.trans {
    fill: #7b7e81;
}

/* styling for combo dendrons */
path.combo {
    stroke-width: 1;
    stroke: gray;
    fill: none;
}

/* Start Tabler Icons Cleanup */
/* cannot use height/width with glyphs */
.icon-tabler > path {
    fill: inherit;
    stroke: inherit;
    stroke-width: 2;
}
/* hide tabler's default box */
.icon-tabler > path[stroke="none"][fill="none"] {
    visibility: hidden;
}
/* End Tabler Icons Cleanup */

@media (prefers-color-scheme: dark) {
svg.keymap { fill: #d1d6db; }
rect.key { fill: #3f4750; }
rect.key, rect.combo { stroke: #60666c; }
rect.combo, rect.combo-separate { fill: #1f3d7a; }
rect.held, rect.combo.held { fill: #854747; }
text.label, text.footer { stroke: black; }
text.trans { fill: #7e8184; }
path.combo { stroke: #7f7f7f; }

}
    rect.key, rect.combo { fill: #313244; stroke: none; }
            rect.combo { fill: #1e1e2e; }
            svg.keymap { background-color: #1e1e2e; }
            .layer-BASE text, .layer-BASE use, .layer-BASE rect.held { fill: #cfbd99; }
            .layer-NAV text, .layer-NAV use, .layer-NAV rect.held { fill: #89b4fa; }
            .layer-SYMBOLS text, .layer-SYMBOLS use, .layer-SYMBOLS rect.held { fill: #a6e3a1; }
            .layer-NUM text, .layer-NUM use, .layer-NUM rect.held { fill: #fab387; }
            .layer-FUN text, .layer-FUN use, .layer-FUN rect.held { fill: #f542e9; }
            text.held { fill: #1e1e2e; }
            rect.mod { fill: #181825; }

            .trans { opacity: 0.8; }
            rect:has(~ a[href="#NAV"]) { stroke: #89b4fa; }
            rect:has(~ a[href="#NUM"]) { stroke: #fab387; }
            rect:has(~ a[href="#SYMBOLS"]) { stroke: #a6e3a1; }
            rect:has(~ a[href="#FUN"]) { stroke: #f542e9; }
            a { visibility: hidden; }


            text.label { border: none; }
</style>
<g transform="translate(30, 0)" class="layer-BASE">
<text x="0" y="28" class="label" id="BASE">BASE:</text>
<g transform="translate(0, 56)">
<g transform="translate(78, 113) rotate(-10.0)" class="key keypos-0">
<rect rx="6" ry="6" x="-28" y="-26" width="55" height="52" class="key"/>
<text x="0" y="0" class="key tap">Q</text>
</g>
<g transform="translate(144, 62) rotate(-4.0)" class="key keypos-1">
<rect rx="6" ry="6" x="-28" y="-26" width="55" height="52" class="key"/>
<text x="0" y="0" class="key tap">W</text>
</g>
<g transform="translate(212, 28)" class="key keypos-2">
<rect rx="6" ry="6" x="-28" y="-26" width="55" height="52" class="key"/>
<text x="0" y="0" class="key tap">E</text>
</g>
<g transform="translate(271, 56)" class="key keypos-3">
<rect rx="6" ry="6" x="-28" y="-26" width="55" height="52" class="key"/>
<text x="0" y="0" class="key tap">R</text>
</g>
<g transform="translate(330, 65)" class="key keypos-4">
<rect rx="6" ry="6" x="-28" y="-26" width="55" height="52" class="key"/>
<text x="0" y="0" class="key tap">T</text>
</g>
<g transform="translate(520, 65)" class="key keypos-5">
<rect rx="6" ry="6" x="-28" y="-26" width="55" height="52" class="key"/>
<text x="0" y="0" class="key tap">Y</text>
</g>
<g transform="translate(580, 56)" class="key keypos-6">
<rect rx="6" ry="6" x="-28" y="-26" width="55" height="52" class="key"/>
<text x="0" y="0" class="key tap">U</text>
</g>
<g transform="translate(639, 28)" class="key keypos-7">
<rect rx="6" ry="6" x="-28" y="-26" width="55" height="52" class="key"/>
<text x="0" y="0" class="key tap">I</text>
</g>
<g transform="translate(706, 62) rotate(4.0)" class="key keypos-8">
<rect rx="6" ry="6" x="-28" y="-26" width="55" height="52" class="key"/>
<text x="0" y="0" class="key tap">O</text>
</g>
<g transform="translate(773, 113) rotate(10.0)" class="key keypos-9">
<rect rx="6" ry="6" x="-28" y="-26" width="55" height="52" class="key"/>
<text x="0" y="0" class="key tap">P</text>
</g>
<g transform="translate(87, 168) rotate(-10.0)" class="key keypos-10">
<rect rx="6" ry="6" x="-28" y="-26" width="55" height="52" class="key"/>
<text x="0" y="0" class="key tap">A</text>
</g>
<g transform="translate(148, 118) rotate(-4.0)" class="key keypos-11">
<rect rx="6" ry="6" x="-28" y="-26" width="55" height="52" class="key"/>
<text x="0" y="0" class="key tap">S</text>
</g>
<g transform="translate(212, 84)" class="key keypos-12">
<rect rx="6" ry="6" x="-28" y="-26" width="55" height="52" class="key"/>
<text x="0" y="0" class="key tap">D</text>
</g>
<g transform="translate(271, 112)" class="key keypos-13">
<rect rx="6" ry="6" x="-28" y="-26" width="55" height="52" class="key"/>
<text x="0" y="0" class="key tap">F</text>
</g>
<g transform="translate(330, 121)" class="key keypos-14">
<rect rx="6" ry="6" x="-28" y="-26" width="55" height="52" class="key"/>
<text x="0" y="0" class="key tap">G</text>
</g>
<g transform="translate(520, 121)" class="key keypos-15">
<rect rx="6" ry="6" x="-28" y="-26" width="55" height="52" class="key"/>
<text x="0" y="0" class="key tap">H</text>
</g>
<g transform="translate(580, 112)" class="key keypos-16">
<rect rx="6" ry="6" x="-28" y="-26" width="55" height="52" class="key"/>
<text x="0" y="0" class="key tap">J</text>
</g>
<g transform="translate(639, 84)" class="key keypos-17">
<rect rx="6" ry="6" x="-28" y="-26" width="55" height="52" class="key"/>
<text x="0" y="0" class="key tap">K</text>
</g>
<g transform="translate(703, 118) rotate(4.0)" class="key keypos-18">
<rect rx="6" ry="6" x="-28" y="-26" width="55" height="52" class="key"/>
<text x="0" y="0" class="key tap">L</text>
</g>
<g transform="translate(764, 168) rotate(10.0)" class="key keypos-19">
<rect rx="6" ry="6" x="-28" y="-26" width="55" height="52" class="key"/>
<text x="0" y="0" class="key tap">;</text>
</g>
<g transform="translate(34, 209) rotate(-10.0)" class="key keypos-20">
<rect rx="6" ry="6" x="-28" y="-26" width="55" height="52" class="key"/>
<use href="#mdi:swap-horizontal" xlink:href="#mdi:swap-horizontal" x="-8" y="-8" height="16" width="16.0" class="key tap glyph mdi:swap-horizontal"/>
</g>
<g transform="translate(97, 223) rotate(-10.0)" class="key keypos-21">
<rect rx="6" ry="6" x="-28" y="-26" width="55" height="52" class="key"/>
<text x="0" y="0" class="key tap">Z</text>
</g>
<g transform="translate(152, 174) rotate(-4.0)" class="key keypos-22">
<rect rx="6" ry="6" x="-28" y="-26" width="55" height="52" class="key"/>
<text x="0" y="0" class="key tap">X</text>
</g>
<g transform="translate(212, 140)" class="key keypos-23">
<rect rx="6" ry="6" x="-28" y="-26" width="55" height="52" class="key"/>
<text x="0" y="0" class="key tap">C</text>
</g>
<g transform="translate(271, 168)" class="key keypos-24">
<rect rx="6" ry="6" x="-28" y="-26" width="55" height="52" class="key"/>
<text x="0" y="0" class="key tap">V</text>
</g>
<g transform="translate(330, 177)" class="key keypos-25">
<rect rx="6" ry="6" x="-28" y="-26" width="55" height="52" class="key"/>
<text x="0" y="0" class="key tap">B</text>
</g>
<g transform="translate(520, 177)" class="key keypos-26">
<rect rx="6" ry="6" x="-28" y="-26" width="55" height="52" class="key"/>
<text x="0" y="0" class="key tap">N</text>
</g>
<g transform="translate(580, 168)" class="key keypos-27">
<rect rx="6" ry="6" x="-28" y="-26" width="55" height="52" class="key"/>
<text x="0" y="0" class="key tap">M</text>
</g>
<g transform="translate(639, 140)" class="key keypos-28">
<rect rx="6" ry="6" x="-28" y="-26" width="55" height="52" class="key"/>
<text x="0" y="0" class="key tap">,</text>
</g>
<g transform="translate(699, 174) rotate(4.0)" class="key keypos-29">
<rect rx="6" ry="6" x="-28" y="-26" width="55" height="52" class="key"/>
<text x="0" y="0" class="key tap">.</text>
</g>
<g transform="translate(754, 223) rotate(10.0)" class="key keypos-30">
<rect rx="6" ry="6" x="-28" y="-26" width="55" height="52" class="key"/>
<text x="0" y="0" class="key tap">&#x27;</text>
</g>
<g transform="translate(817, 209) rotate(10.0)" class="key keypos-31">
<rect rx="6" ry="6" x="-28" y="-26" width="55" height="52" class="key"/>
<use href="#mdi:swap-horizontal-hidden" xlink:href="#mdi:swap-horizontal-hidden" x="-8" y="-8" height="16" width="16.0" class="key tap glyph mdi:swap-horizontal-hidden"/>
</g>
<g transform="translate(255, 236)" class="key keypos-32">
<rect rx="6" ry="6" x="-28" y="-26" width="55" height="52" class="key"/>
<use href="#mdi:keyboard-tab" xlink:href="#mdi:keyboard-tab" x="-8" y="-8" height="16" width="16.0" class="key tap glyph mdi:keyboard-tab"/>
</g>
<g transform="translate(320, 245) rotate(15.0)" class="key keypos-33">
<rect rx="6" ry="6" x="-28" y="-26" width="55" height="52" class="key"/>
<use href="#mdi:keyboard-space" xlink:href="#mdi:keyboard-space" x="-8" y="-8" height="16" width="16.0" class="key tap glyph mdi:keyboard-space"/>
<a href="#NAV">
<text x="0" y="24" class="key hold layer-activator">NAV</text>
</a></g>
<g transform="translate(381, 270) rotate(30.0)" class="key keypos-34">
<rect rx="6" ry="6" x="-28" y="-26" width="55" height="52" class="key"/>
<use href="#mdi:apple-keyboard-shift" xlink:href="#mdi:apple-keyboard-shift" x="-8" y="-8" height="16" width="16.0" class="key tap glyph mdi:apple-keyboard-shift"/>
<a href="#SYMBOLS">
<text x="0" y="24" class="key hold layer-activator">SYMBOLS</text>
</a></g>
<g transform="translate(470, 270) rotate(-30.0)" class="key keypos-35">
<rect rx="6" ry="6" x="-28" y="-26" width="55" height="52" class="key"/>
<use href="#mdi:keyboard-return" xlink:href="#mdi:keyboard-return" x="-8" y="-8" height="16" width="16.0" class="key tap glyph mdi:keyboard-return"/>
</g>
<g transform="translate(531, 245) rotate(-15.0)" class="key keypos-36">
<rect rx="6" ry="6" x="-28" y="-26" width="55" height="52" class="key"/>
<use href="#mdi:backspace" xlink:href="#mdi:backspace" x="-8" y="-8" height="16" width="16.0" class="key tap glyph mdi:backspace"/>
<a href="#NUM">
<text x="0" y="24" class="key hold layer-activator">NUM</text>
</a></g>
<g transform="translate(596, 236)" class="key keypos-37">
<rect rx="6" ry="6" x="-28" y="-26" width="55" height="52" class="key"/>
<use href="#mdi:backspace-reverse-outline" xlink:href="#mdi:backspace-reverse-outline" x="-8" y="-8" height="16" width="16.0" class="key tap glyph mdi:backspace-reverse-outline"/>
<a href="#FUN">
<text x="0" y="24" class="key hold layer-activator">FUN</text>
</a></g>
<g class="combo combopos-0">
<rect rx="6" ry="6" x="97" y="74" width="28" height="26" class="combo"/>
<use href="#mdi:keyboard-esc" xlink:href="#mdi:keyboard-esc" x="103" y="79" height="16" width="16.0" class="combo tap glyph mdi:keyboard-esc"/>
</g>
<g class="combo combopos-1">
<rect rx="6" ry="6" x="110" y="185" width="28" height="26" class="combo"/>
<use href="#mdi:keyboard-return" xlink:href="#mdi:keyboard-return" x="116" y="190" height="16" width="16.0" class="combo tap glyph mdi:keyboard-return"/>
</g>
</g>
</g>
<g transform="translate(30, 366)" class="layer-NAV">
<text x="0" y="28" class="label" id="NAV">NAV:</text>
<g transform="translate(0, 56)">
<g transform="translate(78, 113) rotate(-10.0)" class="key keypos-0">
<rect rx="6" ry="6" x="-28" y="-26" width="55" height="52" class="key"/>
<use href="#mdi:undo-variant" xlink:href="#mdi:undo-variant" x="-8" y="-8" height="16" width="16.0" class="key tap glyph mdi:undo-variant"/>
</g>
<g transform="translate(144, 62) rotate(-4.0)" class="key keypos-1">
<rect rx="6" ry="6" x="-28" y="-26" width="55" height="52" class="key"/>
<use href="#mdi:content-copy" xlink:href="#mdi:content-copy" x="-8" y="-8" height="16" width="16.0" class="key tap glyph mdi:content-copy"/>
</g>
<g transform="translate(212, 28)" class="key keypos-2">
<rect rx="6" ry="6" x="-28" y="-26" width="55" height="52" class="key"/>
<use href="#mdi:content-paste" xlink:href="#mdi:content-paste" x="-8" y="-8" height="16" width="16.0" class="key tap glyph mdi:content-paste"/>
</g>
<g transform="translate(271, 56)" class="key keypos-3">
<rect rx="6" ry="6" x="-28" y="-26" width="55" height="52" class="key"/>
<use href="#mdi:content-cut" xlink:href="#mdi:content-cut" x="-8" y="-8" height="16" width="16.0" class="key tap glyph mdi:content-cut"/>
</g>
<g transform="translate(330, 65)" class="key keypos-4">
<rect rx="6" ry="6" x="-28" y="-26" width="55" height="52" class="key"/>
<use href="#mdi:repeat" xlink:href="#mdi:repeat" x="-8" y="-8" height="16" width="16.0" class="key tap glyph mdi:repeat"/>
</g>
<g transform="translate(520, 65)" class="key trans keypos-5">
<rect rx="6" ry="6" x="-28" y="-26" width="55" height="52" class="key trans"/>
</g>
<g transform="translate(580, 56)" class="key keypos-6">
<rect rx="6" ry="6" x="-28" y="-26" width="55" height="52" class="key"/>
<text x="0" y="0" class="key tap">HOME</text>
</g>
<g transform="translate(639, 28)" class="key keypos-7">
<rect rx="6" ry="6" x="-28" y="-26" width="55" height="52" class="key"/>
<use href="#mdi:arrow-up" xlink:href="#mdi:arrow-up" x="-8" y="-8" height="16" width="16.0" class="key tap glyph mdi:arrow-up"/>
</g>
<g transform="translate(706, 62) rotate(4.0)" class="key keypos-8">
<rect rx="6" ry="6" x="-28" y="-26" width="55" height="52" class="key"/>
<text x="0" y="0" class="key tap">END</text>
</g>
<g transform="translate(773, 113) rotate(10.0)" class="key keypos-9">
<rect rx="6" ry="6" x="-28" y="-26" width="55" height="52" class="key"/>
<text x="0" y="0" class="key tap">PGUP</text>
</g>
<g transform="translate(87, 168) rotate(-10.0)" class="key mod keypos-10">
<rect rx="6" ry="6" x="-28" y="-26" width="55" height="52" class="key mod"/>
<use href="#mdi:apple-keyboard-control" xlink:href="#mdi:apple-keyboard-control" x="-8" y="-8" height="16" width="16.0" class="key mod tap glyph mdi:apple-keyboard-control"/>
</g>
<g transform="translate(148, 118) rotate(-4.0)" class="key mod keypos-11">
<rect rx="6" ry="6" x="-28" y="-26" width="55" height="52" class="key mod"/>
<use href="#mdi:apple-keyboard-option" xlink:href="#mdi:apple-keyboard-option" x="-8" y="-8" height="16" width="16.0" class="key mod tap glyph mdi:apple-keyboard-option"/>
</g>
<g transform="translate(212, 84)" class="key mod keypos-12">
<rect rx="6" ry="6" x="-28" y="-26" width="55" height="52" class="key mod"/>
<use href="#mdi:apple-keyboard-command" xlink:href="#mdi:apple-keyboard-command" x="-8" y="-8" height="16" width="16.0" class="key mod tap glyph mdi:apple-keyboard-command"/>
</g>
<g transform="translate(271, 112)" class="key mod keypos-13">
<rect rx="6" ry="6" x="-28" y="-26" width="55" height="52" class="key mod"/>
<use href="#mdi:apple-keyboard-shift" xlink:href="#mdi:apple-keyboard-shift" x="-8" y="-8" height="16" width="16.0" class="key mod tap glyph mdi:apple-keyboard-shift"/>
</g>
<g transform="translate(330, 121)" class="key trans keypos-14">
<rect rx="6" ry="6" x="-28" y="-26" width="55" height="52" class="key trans"/>
</g>
<g transform="translate(520, 121)" class="key keypos-15">
<rect rx="6" ry="6" x="-28" y="-26" width="55" height="52" class="key"/>
<use href="#mdi:caps-lock" xlink:href="#mdi:caps-lock" x="-8" y="-8" height="16" width="16.0" class="key tap glyph mdi:caps-lock"/>
</g>
<g transform="translate(580, 112)" class="key keypos-16">
<rect rx="6" ry="6" x="-28" y="-26" width="55" height="52" class="key"/>
<use href="#mdi:arrow-left" xlink:href="#mdi:arrow-left" x="-8" y="-8" height="16" width="16.0" class="key tap glyph mdi:arrow-left"/>
</g>
<g transform="translate(639, 84)" class="key keypos-17">
<rect rx="6" ry="6" x="-28" y="-26" width="55" height="52" class="key"/>
<use href="#mdi:arrow-down" xlink:href="#mdi:arrow-down" x="-8" y="-8" height="16" width="16.0" class="key tap glyph mdi:arrow-down"/>
</g>
<g transform="translate(703, 118) rotate(4.0)" class="key keypos-18">
<rect rx="6" ry="6" x="-28" y="-26" width="55" height="52" class="key"/>
<use href="#mdi:arrow-right" xlink:href="#mdi:arrow-right" x="-8" y="-8" height="16" width="16.0" class="key tap glyph mdi:arrow-right"/>
</g>
<g transform="translate(764, 168) rotate(10.0)" class="key keypos-19">
<rect rx="6" ry="6" x="-28" y="-26" width="55" height="52" class="key"/>
<text x="0" y="0" class="key tap">PGDN</text>
</g>
<g transform="translate(34, 209) rotate(-10.0)" class="key trans keypos-20">
<rect rx="6" ry="6" x="-28" y="-26" width="55" height="52" class="key trans"/>
</g>
<g transform="translate(97, 223) rotate(-10.0)" class="key trans keypos-21">
<rect rx="6" ry="6" x="-28" y="-26" width="55" height="52" class="key trans"/>
</g>
<g transform="translate(152, 174) rotate(-4.0)" class="key trans keypos-22">
<rect rx="6" ry="6" x="-28" y="-26" width="55" height="52" class="key trans"/>
</g>
<g transform="translate(212, 140)" class="key keypos-23">
<rect rx="6" ry="6" x="-28" y="-26" width="55" height="52" class="key"/>
<text x="0" y="0" class="key tap">MEH</text>
</g>
<g transform="translate(271, 168)" class="key keypos-24">
<rect rx="6" ry="6" x="-28" y="-26" width="55" height="52" class="key"/>
<text x="0" y="0" class="key tap">HYPR</text>
</g>
<g transform="translate(330, 177)" class="key trans keypos-25">
<rect rx="6" ry="6" x="-28" y="-26" width="55" height="52" class="key trans"/>
</g>
<g transform="translate(520, 177)" class="key trans keypos-26">
<rect rx="6" ry="6" x="-28" y="-26" width="55" height="52" class="key trans"/>
</g>
<g transform="translate(580, 168)" class="key keypos-27">
<rect rx="6" ry="6" x="-28" y="-26" width="55" height="52" class="key"/>
<text x="0" y="0" class="key tap">~</text>
</g>
<g transform="translate(639, 140)" class="key trans keypos-28">
<rect rx="6" ry="6" x="-28" y="-26" width="55" height="52" class="key trans"/>
</g>
<g transform="translate(699, 174) rotate(4.0)" class="key keypos-29">
<rect rx="6" ry="6" x="-28" y="-26" width="55" height="52" class="key"/>
<text x="0" y="0" class="key tap">/</text>
</g>
<g transform="translate(754, 223) rotate(10.0)" class="key trans keypos-30">
<rect rx="6" ry="6" x="-28" y="-26" width="55" height="52" class="key trans"/>
</g>
<g transform="translate(817, 209) rotate(10.0)" class="key trans keypos-31">
<rect rx="6" ry="6" x="-28" y="-26" width="55" height="52" class="key trans"/>
</g>
<g transform="translate(255, 236)" class="key trans keypos-32">
<rect rx="6" ry="6" x="-28" y="-26" width="55" height="52" class="key trans"/>
</g>
<g transform="translate(320, 245) rotate(15.0)" class="key held keypos-33">
<rect rx="6" ry="6" x="-28" y="-26" width="55" height="52" class="key held"/>
</g>
<g transform="translate(381, 270) rotate(30.0)" class="key trans keypos-34">
<rect rx="6" ry="6" x="-28" y="-26" width="55" height="52" class="key trans"/>
</g>
<g transform="translate(470, 270) rotate(-30.0)" class="key keypos-35">
<rect rx="6" ry="6" x="-28" y="-26" width="55" height="52" class="key"/>
<use href="#mdi:keyboard-return" xlink:href="#mdi:keyboard-return" x="-8" y="-8" height="16" width="16.0" class="key tap glyph mdi:keyboard-return"/>
</g>
<g transform="translate(531, 245) rotate(-15.0)" class="key keypos-36">
<rect rx="6" ry="6" x="-28" y="-26" width="55" height="52" class="key"/>
<use href="#mdi:backspace" xlink:href="#mdi:backspace" x="-8" y="-8" height="16" width="16.0" class="key tap glyph mdi:backspace"/>
</g>
<g transform="translate(596, 236)" class="key keypos-37">
<rect rx="6" ry="6" x="-28" y="-26" width="55" height="52" class="key"/>
<use href="#mdi:backspace-reverse-outline" xlink:href="#mdi:backspace-reverse-outline" x="-8" y="-8" height="16" width="16.0" class="key tap glyph mdi:backspace-reverse-outline"/>
</g>
</g>
</g>
<g transform="translate(30, 731)" class="layer-NUM">
<text x="0" y="28" class="label" id="NUM">NUM:</text>
<g transform="translate(0, 56)">
<g transform="translate(78, 113) rotate(-10.0)" class="key keypos-0">
<rect rx="6" ry="6" x="-28" y="-26" width="55" height="52" class="key"/>
<text x="0" y="0" class="key tap">+</text>
</g>
<g transform="translate(144, 62) rotate(-4.0)" class="key keypos-1">
<rect rx="6" ry="6" x="-28" y="-26" width="55" height="52" class="key"/>
<text x="0" y="0" class="key tap">1</text>
</g>
<g transform="translate(212, 28)" class="key keypos-2">
<rect rx="6" ry="6" x="-28" y="-26" width="55" height="52" class="key"/>
<text x="0" y="0" class="key tap">2</text>
</g>
<g transform="translate(271, 56)" class="key keypos-3">
<rect rx="6" ry="6" x="-28" y="-26" width="55" height="52" class="key"/>
<text x="0" y="0" class="key tap">3</text>
</g>
<g transform="translate(330, 65)" class="key keypos-4">
<rect rx="6" ry="6" x="-28" y="-26" width="55" height="52" class="key"/>
<text x="0" y="0" class="key tap">*</text>
</g>
<g transform="translate(520, 65)" class="key trans keypos-5">
<rect rx="6" ry="6" x="-28" y="-26" width="55" height="52" class="key trans"/>
</g>
<g transform="translate(580, 56)" class="key trans keypos-6">
<rect rx="6" ry="6" x="-28" y="-26" width="55" height="52" class="key trans"/>
</g>
<g transform="translate(639, 28)" class="key trans keypos-7">
<rect rx="6" ry="6" x="-28" y="-26" width="55" height="52" class="key trans"/>
</g>
<g transform="translate(706, 62) rotate(4.0)" class="key trans keypos-8">
<rect rx="6" ry="6" x="-28" y="-26" width="55" height="52" class="key trans"/>
</g>
<g transform="translate(773, 113) rotate(10.0)" class="key trans keypos-9">
<rect rx="6" ry="6" x="-28" y="-26" width="55" height="52" class="key trans"/>
</g>
<g transform="translate(87, 168) rotate(-10.0)" class="key keypos-10">
<rect rx="6" ry="6" x="-28" y="-26" width="55" height="52" class="key"/>
<text x="0" y="0" class="key tap">.</text>
</g>
<g transform="translate(148, 118) rotate(-4.0)" class="key keypos-11">
<rect rx="6" ry="6" x="-28" y="-26" width="55" height="52" class="key"/>
<text x="0" y="0" class="key tap">4</text>
</g>
<g transform="translate(212, 84)" class="key keypos-12">
<rect rx="6" ry="6" x="-28" y="-26" width="55" height="52" class="key"/>
<text x="0" y="0" class="key tap">5</text>
</g>
<g transform="translate(271, 112)" class="key keypos-13">
<rect rx="6" ry="6" x="-28" y="-26" width="55" height="52" class="key"/>
<text x="0" y="0" class="key tap">6</text>
</g>
<g transform="translate(330, 121)" class="key keypos-14">
<rect rx="6" ry="6" x="-28" y="-26" width="55" height="52" class="key"/>
<text x="0" y="0" class="key tap">=</text>
</g>
<g transform="translate(520, 121)" class="key trans keypos-15">
<rect rx="6" ry="6" x="-28" y="-26" width="55" height="52" class="key trans"/>
</g>
<g transform="translate(580, 112)" class="key mod keypos-16">
<rect rx="6" ry="6" x="-28" y="-26" width="55" height="52" class="key mod"/>
<use href="#mdi:apple-keyboard-shift" xlink:href="#mdi:apple-keyboard-shift" x="-8" y="-8" height="16" width="16.0" class="key mod tap glyph mdi:apple-keyboard-shift"/>
</g>
<g transform="translate(639, 84)" class="key mod keypos-17">
<rect rx="6" ry="6" x="-28" y="-26" width="55" height="52" class="key mod"/>
<use href="#mdi:apple-keyboard-command" xlink:href="#mdi:apple-keyboard-command" x="-8" y="-8" height="16" width="16.0" class="key mod tap glyph mdi:apple-keyboard-command"/>
</g>
<g transform="translate(703, 118) rotate(4.0)" class="key mod keypos-18">
<rect rx="6" ry="6" x="-28" y="-26" width="55" height="52" class="key mod"/>
<use href="#mdi:apple-keyboard-option" xlink:href="#mdi:apple-keyboard-option" x="-8" y="-8" height="16" width="16.0" class="key mod tap glyph mdi:apple-keyboard-option"/>
</g>
<g transform="translate(764, 168) rotate(10.0)" class="key mod keypos-19">
<rect rx="6" ry="6" x="-28" y="-26" width="55" height="52" class="key mod"/>
<use href="#mdi:apple-keyboard-control" xlink:href="#mdi:apple-keyboard-control" x="-8" y="-8" height="16" width="16.0" class="key mod tap glyph mdi:apple-keyboard-control"/>
</g>
<g transform="translate(34, 209) rotate(-10.0)" class="key keypos-20">
<rect rx="6" ry="6" x="-28" y="-26" width="55" height="52" class="key"/>
<text x="0" y="0" class="key tap">(</text>
</g>
<g transform="translate(97, 223) rotate(-10.0)" class="key keypos-21">
<rect rx="6" ry="6" x="-28" y="-26" width="55" height="52" class="key"/>
<text x="0" y="0" class="key tap">-</text>
</g>
<g transform="translate(152, 174) rotate(-4.0)" class="key keypos-22">
<rect rx="6" ry="6" x="-28" y="-26" width="55" height="52" class="key"/>
<text x="0" y="0" class="key tap">7</text>
</g>
<g transform="translate(212, 140)" class="key keypos-23">
<rect rx="6" ry="6" x="-28" y="-26" width="55" height="52" class="key"/>
<text x="0" y="0" class="key tap">8</text>
</g>
<g transform="translate(271, 168)" class="key keypos-24">
<rect rx="6" ry="6" x="-28" y="-26" width="55" height="52" class="key"/>
<text x="0" y="0" class="key tap">9</text>
</g>
<g transform="translate(330, 177)" class="key keypos-25">
<rect rx="6" ry="6" x="-28" y="-26" width="55" height="52" class="key"/>
<text x="0" y="0" class="key tap">/</text>
</g>
<g transform="translate(520, 177)" class="key trans keypos-26">
<rect rx="6" ry="6" x="-28" y="-26" width="55" height="52" class="key trans"/>
</g>
<g transform="translate(580, 168)" class="key keypos-27">
<rect rx="6" ry="6" x="-28" y="-26" width="55" height="52" class="key"/>
<text x="0" y="0" class="key tap">HYPR</text>
</g>
<g transform="translate(639, 140)" class="key keypos-28">
<rect rx="6" ry="6" x="-28" y="-26" width="55" height="52" class="key"/>
<text x="0" y="0" class="key tap">MEH</text>
</g>
<g transform="translate(699, 174) rotate(4.0)" class="key trans keypos-29">
<rect rx="6" ry="6" x="-28" y="-26" width="55" height="52" class="key trans"/>
</g>
<g transform="translate(754, 223) rotate(10.0)" class="key trans keypos-30">
<rect rx="6" ry="6" x="-28" y="-26" width="55" height="52" class="key trans"/>
</g>
<g transform="translate(817, 209) rotate(10.0)" class="key keypos-31">
<rect rx="6" ry="6" x="-28" y="-26" width="55" height="52" class="key"/>
<text x="0" y="0" class="key tap">)</text>
</g>
<g transform="translate(255, 236)" class="key trans keypos-32">
<rect rx="6" ry="6" x="-28" y="-26" width="55" height="52" class="key trans"/>
</g>
<g transform="translate(320, 245) rotate(15.0)" class="key keypos-33">
<rect rx="6" ry="6" x="-28" y="-26" width="55" height="52" class="key"/>
<text x="0" y="0" class="key tap">0</text>
</g>
<g transform="translate(381, 270) rotate(30.0)" class="key keypos-34">
<rect rx="6" ry="6" x="-28" y="-26" width="55" height="52" class="key"/>
<text x="0" y="0" class="key tap">;</text>
</g>
<g transform="translate(470, 270) rotate(-30.0)" class="key trans keypos-35">
<rect rx="6" ry="6" x="-28" y="-26" width="55" height="52" class="key trans"/>
</g>
<g transform="translate(531, 245) rotate(-15.0)" class="key held keypos-36">
<rect rx="6" ry="6" x="-28" y="-26" width="55" height="52" class="key held"/>
</g>
<g transform="translate(596, 236)" class="key trans keypos-37">
<rect rx="6" ry="6" x="-28" y="-26" width="55" height="52" class="key trans"/>
</g>
</g>
</g>
<g transform="translate(30, 1097)" class="layer-SYMBOLS">
<text x="0" y="28" class="label" id="SYMBOLS">SYMBOLS:</text>
<g transform="translate(0, 56)">
<g transform="translate(78, 113) rotate(-10.0)" class="key keypos-0">
<rect rx="6" ry="6" x="-28" y="-26" width="55" height="52" class="key"/>
<text x="0" y="0" class="key tap">\</text>
</g>
<g transform="translate(144, 62) rotate(-4.0)" class="key keypos-1">
<rect rx="6" ry="6" x="-28" y="-26" width="55" height="52" class="key"/>
<text x="0" y="0" class="key tap">|</text>
</g>
<g transform="translate(212, 28)" class="key keypos-2">
<rect rx="6" ry="6" x="-28" y="-26" width="55" height="52" class="key"/>
<text x="0" y="0" class="key tap">_</text>
</g>
<g transform="translate(271, 56)" class="key keypos-3">
<rect rx="6" ry="6" x="-28" y="-26" width="55" height="52" class="key"/>
<text x="0" y="0" class="key tap">&amp;</text>
</g>
<g transform="translate(330, 65)" class="key keypos-4">
<rect rx="6" ry="6" x="-28" y="-26" width="55" height="52" class="key"/>
<text x="0" y="0" class="key tap">%</text>
</g>
<g transform="translate(520, 65)" class="key keypos-5">
<rect rx="6" ry="6" x="-28" y="-26" width="55" height="52" class="key"/>
<text x="0" y="0" class="key tap">+</text>
</g>
<g transform="translate(580, 56)" class="key keypos-6">
<rect rx="6" ry="6" x="-28" y="-26" width="55" height="52" class="key"/>
<text x="0" y="0" class="key tap">-</text>
</g>
<g transform="translate(639, 28)" class="key keypos-7">
<rect rx="6" ry="6" x="-28" y="-26" width="55" height="52" class="key"/>
<text x="0" y="0" class="key tap">=</text>
</g>
<g transform="translate(706, 62) rotate(4.0)" class="key keypos-8">
<rect rx="6" ry="6" x="-28" y="-26" width="55" height="52" class="key"/>
<text x="0" y="0" class="key tap">*</text>
</g>
<g transform="translate(773, 113) rotate(10.0)" class="key keypos-9">
<rect rx="6" ry="6" x="-28" y="-26" width="55" height="52" class="key"/>
<text x="0" y="0" class="key tap">/</text>
</g>
<g transform="translate(87, 168) rotate(-10.0)" class="key keypos-10">
<rect rx="6" ry="6" x="-28" y="-26" width="55" height="52" class="key"/>
<text x="0" y="0" class="key tap">&lt;</text>
</g>
<g transform="translate(148, 118) rotate(-4.0)" class="key keypos-11">
<rect rx="6" ry="6" x="-28" y="-26" width="55" height="52" class="key"/>
<text x="0" y="0" class="key tap">:</text>
</g>
<g transform="translate(212, 84)" class="key keypos-12">
<rect rx="6" ry="6" x="-28" y="-26" width="55" height="52" class="key"/>
<text x="0" y="0" class="key tap">{</text>
</g>
<g transform="translate(271, 112)" class="key keypos-13">
<rect rx="6" ry="6" x="-28" y="-26" width="55" height="52" class="key"/>
<text x="0" y="0" class="key tap">(</text>
</g>
<g transform="translate(330, 121)" class="key keypos-14">
<rect rx="6" ry="6" x="-28" y="-26" width="55" height="52" class="key"/>
<text x="0" y="0" class="key tap">[</text>
</g>
<g transform="translate(520, 121)" class="key keypos-15">
<rect rx="6" ry="6" x="-28" y="-26" width="55" height="52" class="key"/>
<text x="0" y="0" class="key tap">$</text>
</g>
<g transform="translate(580, 112)" class="key trans keypos-16">
<rect rx="6" ry="6" x="-28" y="-26" width="55" height="52" class="key trans"/>
</g>
<g transform="translate(639, 84)" class="key trans keypos-17">
<rect rx="6" ry="6" x="-28" y="-26" width="55" height="52" class="key trans"/>
</g>
<g transform="translate(703, 118) rotate(4.0)" class="key trans keypos-18">
<rect rx="6" ry="6" x="-28" y="-26" width="55" height="52" class="key trans"/>
</g>
<g transform="translate(764, 168) rotate(10.0)" class="key trans keypos-19">
<rect rx="6" ry="6" x="-28" y="-26" width="55" height="52" class="key trans"/>
</g>
<g transform="translate(34, 209) rotate(-10.0)" class="key trans keypos-20">
<rect rx="6" ry="6" x="-28" y="-26" width="55" height="52" class="key trans"/>
</g>
<g transform="translate(97, 223) rotate(-10.0)" class="key keypos-21">
<rect rx="6" ry="6" x="-28" y="-26" width="55" height="52" class="key"/>
<text x="0" y="0" class="key tap">&gt;</text>
</g>
<g transform="translate(152, 174) rotate(-4.0)" class="key keypos-22">
<rect rx="6" ry="6" x="-28" y="-26" width="55" height="52" class="key"/>
<text x="0" y="0" class="key tap">;</text>
</g>
<g transform="translate(212, 140)" class="key keypos-23">
<rect rx="6" ry="6" x="-28" y="-26" width="55" height="52" class="key"/>
<text x="0" y="0" class="key tap">}</text>
</g>
<g transform="translate(271, 168)" class="key keypos-24">
<rect rx="6" ry="6" x="-28" y="-26" width="55" height="52" class="key"/>
<text x="0" y="0" class="key tap">)</text>
</g>
<g transform="translate(330, 177)" class="key keypos-25">
<rect rx="6" ry="6" x="-28" y="-26" width="55" height="52" class="key"/>
<text x="0" y="0" class="key tap">]</text>
</g>
<g transform="translate(520, 177)" class="key trans keypos-26">
<rect rx="6" ry="6" x="-28" y="-26" width="55" height="52" class="key trans"/>
</g>
<g transform="translate(580, 168)" class="key keypos-27">
<rect rx="6" ry="6" x="-28" y="-26" width="55" height="52" class="key"/>
<text x="0" y="0" class="key tap">@</text>
</g>
<g transform="translate(639, 140)" class="key keypos-28">
<rect rx="6" ry="6" x="-28" y="-26" width="55" height="52" class="key"/>
<text x="0" y="0" class="key tap">#</text>
</g>
<g transform="translate(699, 174) rotate(4.0)" class="key keypos-29">
<rect rx="6" ry="6" x="-28" y="-26" width="55" height="52" class="key"/>
<text x="0" y="0" class="key tap">^</text>
</g>
<g transform="translate(754, 223) rotate(10.0)" class="key keypos-30">
<rect rx="6" ry="6" x="-28" y="-26" width="55" height="52" class="key"/>
<text x="0" y="0" class="key tap">~</text>
</g>
<g transform="translate(817, 209) rotate(10.0)" class="key trans keypos-31">
<rect rx="6" ry="6" x="-28" y="-26" width="55" height="52" class="key trans"/>
</g>
<g transform="translate(255, 236)" class="key trans keypos-32">
<rect rx="6" ry="6" x="-28" y="-26" width="55" height="52" class="key trans"/>
</g>
<g transform="translate(320, 245) rotate(15.0)" class="key trans keypos-33">
<rect rx="6" ry="6" x="-28" y="-26" width="55" height="52" class="key trans"/>
</g>
<g transform="translate(381, 270) rotate(30.0)" class="key held keypos-34">
<rect rx="6" ry="6" x="-28" y="-26" width="55" height="52" class="key held"/>
</g>
<g transform="translate(470, 270) rotate(-30.0)" class="key trans keypos-35">
<rect rx="6" ry="6" x="-28" y="-26" width="55" height="52" class="key trans"/>
</g>
<g transform="translate(531, 245) rotate(-15.0)" class="key trans keypos-36">
<rect rx="6" ry="6" x="-28" y="-26" width="55" height="52" class="key trans"/>
</g>
<g transform="translate(596, 236)" class="key trans keypos-37">
<rect rx="6" ry="6" x="-28" y="-26" width="55" height="52" class="key trans"/>
</g>
<g class="combo combopos-0">
<rect rx="6" ry="6" x="164" y="32" width="28" height="26" class="combo"/>
<text x="178" y="45" class="combo tap">!=</text>
</g>
<g class="combo combopos-1">
<rect rx="6" ry="6" x="228" y="29" width="28" height="26" class="combo"/>
<text x="242" y="42" class="combo tap">&lt;=</text>
</g>
<g class="combo combopos-2">
<rect rx="6" ry="6" x="287" y="47" width="28" height="26" class="combo"/>
<text x="301" y="60" class="combo tap">`</text>
</g>
<g class="combo combopos-3">
<rect rx="6" ry="6" x="536" y="47" width="28" height="26" class="combo"/>
<text x="550" y="60" class="combo tap">´</text>
</g>
<g class="combo combopos-4">
<rect rx="6" ry="6" x="228" y="85" width="28" height="26" class="combo"/>
<text x="242" y="98" class="combo tap">=&gt;</text>
</g>
<g class="combo combopos-5">
<rect rx="6" ry="6" x="595" y="29" width="28" height="26" class="combo"/>
<text x="609" y="42" class="combo tap">&gt;=</text>
</g>
</g>
</g>
<g transform="translate(30, 1462)" class="layer-FUN">
<text x="0" y="28" class="label" id="FUN">FUN:</text>
<g transform="translate(0, 56)">
<g transform="translate(78, 113) rotate(-10.0)" class="key keypos-0">
<rect rx="6" ry="6" x="-28" y="-26" width="55" height="52" class="key"/>
<text x="0" y="0" class="key tap">F12</text>
</g>
<g transform="translate(144, 62) rotate(-4.0)" class="key keypos-1">
<rect rx="6" ry="6" x="-28" y="-26" width="55" height="52" class="key"/>
<text x="0" y="0" class="key tap">F7</text>
</g>
<g transform="translate(212, 28)" class="key keypos-2">
<rect rx="6" ry="6" x="-28" y="-26" width="55" height="52" class="key"/>
<text x="0" y="0" class="key tap">F8</text>
</g>
<g transform="translate(271, 56)" class="key keypos-3">
<rect rx="6" ry="6" x="-28" y="-26" width="55" height="52" class="key"/>
<text x="0" y="0" class="key tap">F9</text>
</g>
<g transform="translate(330, 65)" class="key trans keypos-4">
<rect rx="6" ry="6" x="-28" y="-26" width="55" height="52" class="key trans"/>
</g>
<g transform="translate(520, 65)" class="key trans keypos-5">
<rect rx="6" ry="6" x="-28" y="-26" width="55" height="52" class="key trans"/>
</g>
<g transform="translate(580, 56)" class="key trans keypos-6">
<rect rx="6" ry="6" x="-28" y="-26" width="55" height="52" class="key trans"/>
</g>
<g transform="translate(639, 28)" class="key trans keypos-7">
<rect rx="6" ry="6" x="-28" y="-26" width="55" height="52" class="key trans"/>
</g>
<g transform="translate(706, 62) rotate(4.0)" class="key trans keypos-8">
<rect rx="6" ry="6" x="-28" y="-26" width="55" height="52" class="key trans"/>
</g>
<g transform="translate(773, 113) rotate(10.0)" class="key trans keypos-9">
<rect rx="6" ry="6" x="-28" y="-26" width="55" height="52" class="key trans"/>
</g>
<g transform="translate(87, 168) rotate(-10.0)" class="key keypos-10">
<rect rx="6" ry="6" x="-28" y="-26" width="55" height="52" class="key"/>
<text x="0" y="0" class="key tap">F11</text>
</g>
<g transform="translate(148, 118) rotate(-4.0)" class="key keypos-11">
<rect rx="6" ry="6" x="-28" y="-26" width="55" height="52" class="key"/>
<text x="0" y="0" class="key tap">F4</text>
</g>
<g transform="translate(212, 84)" class="key keypos-12">
<rect rx="6" ry="6" x="-28" y="-26" width="55" height="52" class="key"/>
<text x="0" y="0" class="key tap">F5</text>
</g>
<g transform="translate(271, 112)" class="key keypos-13">
<rect rx="6" ry="6" x="-28" y="-26" width="55" height="52" class="key"/>
<text x="0" y="0" class="key tap">F6</text>
</g>
<g transform="translate(330, 121)" class="key trans keypos-14">
<rect rx="6" ry="6" x="-28" y="-26" width="55" height="52" class="key trans"/>
</g>
<g transform="translate(520, 121)" class="key trans keypos-15">
<rect rx="6" ry="6" x="-28" y="-26" width="55" height="52" class="key trans"/>
</g>
<g transform="translate(580, 112)" class="key trans keypos-16">
<rect rx="6" ry="6" x="-28" y="-26" width="55" height="52" class="key trans"/>
</g>
<g transform="translate(639, 84)" class="key trans keypos-17">
<rect rx="6" ry="6" x="-28" y="-26" width="55" height="52" class="key trans"/>
</g>
<g transform="translate(703, 118) rotate(4.0)" class="key trans keypos-18">
<rect rx="6" ry="6" x="-28" y="-26" width="55" height="52" class="key trans"/>
</g>
<g transform="translate(764, 168) rotate(10.0)" class="key trans keypos-19">
<rect rx="6" ry="6" x="-28" y="-26" width="55" height="52" class="key trans"/>
</g>
<g transform="translate(34, 209) rotate(-10.0)" class="key keypos-20">
<rect rx="6" ry="6" x="-28" y="-26" width="55" height="52" class="key"/>
<text x="0" y="0" class="key tap">PSCR</text>
</g>
<g transform="translate(97, 223) rotate(-10.0)" class="key keypos-21">
<rect rx="6" ry="6" x="-28" y="-26" width="55" height="52" class="key"/>
<text x="0" y="0" class="key tap">F10</text>
</g>
<g transform="translate(152, 174) rotate(-4.0)" class="key keypos-22">
<rect rx="6" ry="6" x="-28" y="-26" width="55" height="52" class="key"/>
<text x="0" y="0" class="key tap">F1</text>
</g>
<g transform="translate(212, 140)" class="key keypos-23">
<rect rx="6" ry="6" x="-28" y="-26" width="55" height="52" class="key"/>
<text x="0" y="0" class="key tap">F2</text>
</g>
<g transform="translate(271, 168)" class="key keypos-24">
<rect rx="6" ry="6" x="-28" y="-26" width="55" height="52" class="key"/>
<text x="0" y="0" class="key tap">F3</text>
</g>
<g transform="translate(330, 177)" class="key trans keypos-25">
<rect rx="6" ry="6" x="-28" y="-26" width="55" height="52" class="key trans"/>
</g>
<g transform="translate(520, 177)" class="key trans keypos-26">
<rect rx="6" ry="6" x="-28" y="-26" width="55" height="52" class="key trans"/>
</g>
<g transform="translate(580, 168)" class="key keypos-27">
<rect rx="6" ry="6" x="-28" y="-26" width="55" height="52" class="key"/>
<text x="0" y="0" class="key tap">HYPR</text>
</g>
<g transform="translate(639, 140)" class="key keypos-28">
<rect rx="6" ry="6" x="-28" y="-26" width="55" height="52" class="key"/>
<text x="0" y="0" class="key tap">MEH</text>
</g>
<g transform="translate(699, 174) rotate(4.0)" class="key keypos-29">
<rect rx="6" ry="6" x="-28" y="-26" width="55" height="52" class="key"/>
<text x="0" y="0" class="key tap">
<tspan x="0" dy="-0.6em">DM</tspan><tspan x="0" dy="1.2em">REC1</tspan>
</text>
</g>
<g transform="translate(754, 223) rotate(10.0)" class="key keypos-30">
<rect rx="6" ry="6" x="-28" y="-26" width="55" height="52" class="key"/>
<text x="0" y="0" class="key tap">
<tspan x="0" dy="-0.6em">DM</tspan><tspan x="0" dy="1.2em">RSTP</tspan>
</text>
</g>
<g transform="translate(817, 209) rotate(10.0)" class="key keypos-31">
<rect rx="6" ry="6" x="-28" y="-26" width="55" height="52" class="key"/>
<text x="0" y="0" class="key tap">
<tspan x="0" dy="-0.6em">DM</tspan><tspan x="0" dy="1.2em">PLY1</tspan>
</text>
</g>
<g transform="translate(255, 236)" class="key trans keypos-32">
<rect rx="6" ry="6" x="-28" y="-26" width="55" height="52" class="key trans"/>
</g>
<g transform="translate(320, 245) rotate(15.0)" class="key trans keypos-33">
<rect rx="6" ry="6" x="-28" y="-26" width="55" height="52" class="key trans"/>
</g>
<g transform="translate(381, 270) rotate(30.0)" class="key trans keypos-34">
<rect rx="6" ry="6" x="-28" y="-26" width="55" height="52" class="key trans"/>
</g>
<g transform="translate(470, 270) rotate(-30.0)" class="key trans keypos-35">
<rect rx="6" ry="6" x="-28" y="-26" width="55" height="52" class="key trans"/>
</g>
<g transform="translate(531, 245) rotate(-15.0)" class="key trans keypos-36">
<rect rx="6" ry="6" x="-28" y="-26" width="55" height="52" class="key trans"/>
</g>
<g transform="translate(596, 236)" class="key held keypos-37">
<rect rx="6" ry="6" x="-28" y="-26" width="55" height="52" class="key held"/>
</g>
</g>
</g>
</svg>
